<?xml version="1.0" encoding="UTF-8" standalone="no"?>
<!-- Created with Inkscape (http://www.inkscape.org/) -->

<svg
   xmlns:dc="http://purl.org/dc/elements/1.1/"
   xmlns:cc="http://creativecommons.org/ns#"
   xmlns:rdf="http://www.w3.org/1999/02/22-rdf-syntax-ns#"
   xmlns:svg="http://www.w3.org/2000/svg"
   xmlns="http://www.w3.org/2000/svg"
   xmlns:sodipodi="http://sodipodi.sourceforge.net/DTD/sodipodi-0.dtd"
   xmlns:inkscape="http://www.inkscape.org/namespaces/inkscape"
   width="191.49408mm"
   height="31.514891mm"
   viewBox="0 0 191.49408 31.514891"
   version="1.1"
   id="svg47170"
   inkscape:version="0.92.4 (5da689c313, 2019-01-14)"
   sodipodi:docname="carlisle.svg">
  <defs
     id="defs47164" />
  <sodipodi:namedview
     id="base"
     pagecolor="#ffffff"
     bordercolor="#666666"
     borderopacity="1.0"
     inkscape:pageopacity="0.0"
     inkscape:pageshadow="2"
     inkscape:zoom="2.0306186"
     inkscape:cx="359.98882"
     inkscape:cy="57.665927"
     inkscape:document-units="mm"
     inkscape:current-layer="layer1"
     showgrid="false"
     fit-margin-top="0"
     fit-margin-left="0"
     fit-margin-right="0"
     fit-margin-bottom="0"
     inkscape:window-width="1920"
     inkscape:window-height="1001"
     inkscape:window-x="-9"
     inkscape:window-y="-9"
     inkscape:window-maximized="1" />
  <metadata
     id="metadata47167">
    <rdf:RDF>
      <cc:Work
         rdf:about="">
        <dc:format>image/svg+xml</dc:format>
        <dc:type
           rdf:resource="http://purl.org/dc/dcmitype/StillImage" />
        <dc:title></dc:title>
      </cc:Work>
    </rdf:RDF>
  </metadata>
  <g
     inkscape:label="Layer 1"
     inkscape:groupmode="layer"
     id="layer1"
     transform="translate(102.05061,-132.57589)">
    <g
       transform="translate(892.05232,-273.2313)"
       id="g47070">
      <path
         id="path46868"
         d="m -955.53531,406.34208 h -18.07104 c 0,0 -12.83229,-0.97896 -15.61042,7.43479 l -3.94229,12.03854 c 0,0 -3.78354,11.00667 10.74208,11.00667 h 27.19917 l 9.60438,-5.97959 -1.95792,5.97959 h 134.77875 l 9.68375,-30.50646 h -145.81188 l -8.41375,5.63562 z"
         class="st0"
         inkscape:connector-curvature="0"
         style="fill:#00509e;stroke-width:0.26458332" />
      <polygon
         transform="matrix(0.26458333,0,0,0.26458333,-1002.9751,397.26687)"
         id="polygon46872"
         points="698.5,127 631.8,127 654.3,56 721.1,56 716.4,70.9 674.1,70.9 670.4,82.7 712.7,82.6 707.7,98.2 665.5,98.2 661.1,112.1 703.3,112.1 "
         class="st1"
         style="fill:#ffffff" />
      <polygon
         transform="matrix(0.26458333,0,0,0.26458333,-1002.9751,397.26687)"
         id="polygon46876"
         points="619.6,127 559.6,127 582.7,56 608.8,56 590.8,111.7 624.7,111.6 "
         class="st1"
         style="fill:#ffffff" />
      <polygon
         transform="matrix(0.26458333,0,0,0.26458333,-1002.9751,397.26687)"
         id="polygon46880"
         points="466.5,56 443.6,127 418,127.1 440.6,56 "
         class="st1"
         style="fill:#ffffff" />
      <polygon
         transform="matrix(0.26458333,0,0,0.26458333,-1002.9751,397.26687)"
         id="polygon46884"
         points="396.3,56 378.8,111.4 412.7,111.4 407.7,127.1 347.8,127 370.7,56 "
         class="st1"
         style="fill:#ffffff" />
      <path
         id="path46888"
         d="m -943.33802,423.32833 h -8.06979 l 10.29229,-6.90563 z m -32.14687,-11.35063 c -4.04813,0 -5.58271,0.89959 -6.69396,3.57188 l -3.73063,11.64166 c -0.66145,2.0373 1.29646,3.67771 4.33917,3.67771 h 18.86479 l 4.81542,-3.22791 h 13.28208 l -1.03187,3.20145 h 6.82625 l 6.08541,-18.78541 h -9.49854 l -21.66937,14.57854 h -14.84313 l 3.4925,-10.76854 h 12.065 l 5.84729,-3.88938 z"
         class="st1"
         inkscape:connector-curvature="0"
         style="fill:#ffffff;stroke-width:0.26458332" />
      <path
         id="path46892"
         d="m -868.32864,416.21104 h 14.52562 l 1.40229,-4.1275 h -15.47812 l -1.00542,0.0264 c -0.42333,0 -0.84667,0.0529 -1.27,0.15875 -2.72521,0.55563 -6.13833,2.88396 -6.985,5.68855 -0.92604,3.0427 0.42334,5.52979 2.69875,5.74145 h 10.98021 c 1.77271,0.0265 1.93146,0.89959 1.40229,1.7198 -0.52917,0.8202 -1.24354,1.32291 -3.33375,1.32291 h -7.51416 -8.3873 l -1.34937,4.18042 h 18.70604 c 2.8575,-0.0265 6.93208,-2.59292 7.91104,-5.76792 0.97896,-3.175 -0.52917,-5.95312 -3.09562,-5.92666 h -11.08605 c -1.21708,0 -1.53458,-0.87313 -1.00541,-1.69334 0.50271,-0.89958 1.13771,-1.32291 2.88396,-1.32291 z"
         class="st1"
         inkscape:connector-curvature="0"
         style="fill:#ffffff;stroke-width:0.26458332" />
      <path
         id="path46896"
         d="m -911.11177,417.93083 c 0.97896,-3.20146 -0.42333,-5.87375 -2.98979,-5.84729 h -15.61042 l -6.08541,18.78541 h 7.19666 l 2.9898,-10.00125 1.53458,-4.7625 h 4.15396 c 2.48708,0 3.36021,1.29646 2.56646,2.83104 -0.84667,1.64042 -2.32834,1.85209 -4.10105,1.95792 h -4.1275 l 5.66209,10.00125 h 7.17021 l -4.02167,-7.11729 -0.18521,-0.34396 c 2.46063,-0.84667 5.08,-2.98979 5.84729,-5.50333 z"
         class="st1"
         inkscape:connector-curvature="0"
         style="fill:#ffffff;stroke-width:0.26458332" />
      <path
         id="path46900"
         d="m -818.08427,432.90624 c 0,-0.87312 0.71438,-1.5875 1.5875,-1.5875 0.87313,0 1.5875,0.71438 1.5875,1.5875 0,0.87313 -0.71437,1.5875 -1.5875,1.5875 -0.87312,0.0265 -1.5875,-0.68791 -1.5875,-1.5875 z m 2.88396,0 c 0,-0.71437 -0.58208,-1.29645 -1.29646,-1.29645 -0.71437,0 -1.29646,0.58208 -1.29646,1.29645 0,0.71438 0.58209,1.29646 1.29646,1.29646 0.74083,0 1.29646,-0.55562 1.29646,-1.29646 z m -0.50271,0.87313 h -0.39687 l -0.39688,-0.71438 h -0.34396 v 0.71438 h -0.34396 v -1.71979 h 0.84667 c 0.15875,0 0.34396,0 0.47625,0.0794 0.15875,0.10584 0.21167,0.26459 0.21167,0.44979 0,0.3175 -0.15875,0.4498 -0.47625,0.47625 z m -0.60854,-0.97896 c 0.18521,0 0.3175,-0.0529 0.3175,-0.26458 0,-0.23813 -0.23813,-0.23813 -0.42333,-0.23813 h -0.42334 v 0.47625 z"
         class="st1"
         inkscape:connector-curvature="0"
         style="fill:#ffffff;stroke-width:0.26458332" />
    </g>
  </g>
</svg>
