<svg xmlns="http://www.w3.org/2000/svg" viewBox="0 0 260 140" role="img" aria-label="Google Verified Business"><rect width="260" height="140" fill="#ffffff" stroke="#e2e8f0" stroke-width="1" rx="6"/><g transform="translate(70,44)"><path fill="#4285F4" d="M50 24.5c0-1.8-.2-3.6-.4-5.3H25.6v10.2h13.6c-.6 3.2-2.4 6-5.2 7.8v6.4h8.4C47.2 39.2 50 32.6 50 24.5z"/><path fill="#34A853" d="M25.6 50c7 0 13-2.4 17.2-6.4l-8.4-6.4c-2.4 1.6-5.4 2.6-8.8 2.6-6.8 0-12.4-4.6-14.4-10.6H2.6v6.6C6.8 44.4 15.6 50 25.6 50z"/><path fill="#FBBC05" d="M11.2 29c-.6-1.6-.8-3.2-.8-5s.4-3.4.8-5V12.4H2.6C1 15.6 0 19.2 0 23s1 7.4 2.6 10.6L11.2 29z"/><path fill="#EA4335" d="M25.6 9.6c3.8 0 7.2 1.4 10 3.8l7.4-7.4C38.6 2.4 32.6 0 25.6 0 15.6 0 6.8 5.6 2.6 13.4l8.6 6.6c2-6 7.6-10.4 14.4-10.4z"/></g><g fill="#0f172a" font-family="system-ui,-apple-system,Segoe UI,sans-serif" text-anchor="middle"><text x="130" y="112" font-size="14" font-weight="800" letter-spacing="1">VERIFIED BUSINESS</text><text x="130" y="128" font-size="9.5" font-weight="600" letter-spacing="2.5" fill="#64748b">SOUTH FLORIDA</text></g></svg>
