<svg xmlns="http://www.w3.org/2000/svg" viewBox="0 0 260 140" role="img" aria-label="4.9 Star Google Reviews"><rect width="260" height="140" fill="#ffffff" stroke="#e2e8f0" stroke-width="1" rx="6"/><g transform="translate(105,22)"><path fill="#4285F4" d="M25 12.3c0-.9-.1-1.8-.2-2.7H12.8v5.1h6.8c-.3 1.6-1.2 3-2.6 3.9v3.2h4.2c2.4-2.2 3.8-5.5 3.8-9.5z"/><path fill="#34A853" d="M12.8 25c3.5 0 6.5-1.2 8.6-3.2l-4.2-3.2c-1.2.8-2.7 1.3-4.4 1.3-3.4 0-6.2-2.3-7.2-5.3H1.3v3.3C3.4 22.2 7.8 25 12.8 25z"/><path fill="#FBBC05" d="M5.6 14.5c-.3-.8-.4-1.6-.4-2.5s.2-1.7.4-2.5V6.2H1.3C.5 7.8 0 9.6 0 12c0 2.4.5 4.2 1.3 5.8l4.3-3.3z"/><path fill="#EA4335" d="M12.8 4.8c1.9 0 3.6.7 5 1.9l3.7-3.7C19.3 1.2 16.3 0 12.8 0 7.8 0 3.4 2.8 1.3 6.2l4.3 3.3c1-3 3.8-5.3 7.2-5.3z"/></g><g transform="translate(80,58)"><path d="M10 0l2.9 6.4L20 7.3l-5.3 4.6 1.3 6.9L10 15.6l-5.9 3.2 1.3-6.9L.1 7.3l7.1-.9z" fill="#f59e0b"/><path d="M40 0l2.9 6.4L50 7.3l-5.3 4.6 1.3 6.9L40 15.6l-5.9 3.2 1.3-6.9L30.1 7.3l7.1-.9z" fill="#f59e0b"/><path d="M70 0l2.9 6.4L80 7.3l-5.3 4.6 1.3 6.9L70 15.6l-5.9 3.2 1.3-6.9L60.1 7.3l7.1-.9z" fill="#f59e0b"/><path d="M100 0l2.9 6.4 7.1.9-5.3 4.6 1.3 6.9-5.9-3.2-5.9 3.2 1.3-6.9L90.1 7.3l7.1-.9z" fill="#f59e0b"/><path d="M130 0l2.9 6.4 7.1.9-5.3 4.6 1.3 6.9-5.9-3.2-5.9 3.2 1.3-6.9-5.3-4.6 7.1-.9z" fill="#f59e0b"/></g><g fill="#0f172a" font-family="system-ui,-apple-system,Segoe UI,sans-serif" text-anchor="middle"><text x="130" y="100" font-size="22" font-weight="800" letter-spacing="-0.5">4.9 / 5.0</text><text x="130" y="118" font-size="9.5" font-weight="700" letter-spacing="2.5" fill="#64748b">312+ GOOGLE REVIEWS</text><text x="130" y="131" font-size="8" font-weight="500" fill="#94a3b8">Florida verified customers</text></g></svg>
